<?xml version="1.0" encoding="utf-8"?>
<!-- Generator: Adobe Illustrator 21.1.0, SVG Export Plug-In . SVG Version: 6.00 Build 0)  -->
<svg version="1.1" id="Ebene_1" xmlns="http://www.w3.org/2000/svg" xmlns:xlink="http://www.w3.org/1999/xlink" x="0px" y="0px"
	 viewBox="0 0 543.1 139.5" style="enable-background:new 0 0 543.1 139.5;" xml:space="preserve">
<g>
	<path id="cam" d="M390.1,66.6c0.3-5.5,0.3-8.1,7.3-8.1c3.3,0,7.2-0.8,9.5,0.8c1.4,0.9,3.2,0,3.2-1.6l0-32.7c0-3.4,2.7-6.1,6.1-6.1
		h47.6c3.4,0,6.1,2.7,6.1,6.1v32.5c0,1.8,1.4,3.2,3.2,3.2l8.4,0c3.3,0,6.5-0.1,9.3-1.9c2.2-1.4,4.8-2.2,7.6-2.2
		c7.8,0,14.1,5.3,14.6,13.2h0v42.9c0,1.1-0.9,2-2,2l0,0c-1.1,0-2,0.9-2,2v4.1c0,1.1-0.9,2-2,2H405.7c-8.6,0-15.6-7-15.6-15.6
		L390.1,66.6L390.1,66.6z"/>
	<path id="cup" d="M353.4,39.3c-4.7-11.5-13-4.7-22.2-6.1c-8.3-1.2-1.5-11.6-10.8-13.8c-3.2-0.8-50.4-0.8-69-0.1c-5,0.2-6.2,2.7-6.8,4.6
		c-2.9,10.1-3.8,20.7-3.8,32.4c0,30.6,3.4,56.3,15.8,65.1c5.1,3.6,43.9,2,48.1,1.9c13.1-0.3,18.1-10.4,20-20.1
		c1.1-5.8,1.6-11.8,3.1-17.5c3-10.8,12.3-5.8,20.5-10.7c6.3-3.8,6.9-7.4,7.4-15C356.1,52.8,355.8,45.3,353.4,39.3z M345.4,61.2
		c-1.5,6.5-8.9,6-11.3,6.1c-2.5,0-4.7-1.4-5.2-5.2c-0.2-1.9-0.5-12-0.3-13.8c0.4-3.5,6.9-7,13.6-4.4
		C345.9,45.4,347.1,53.9,345.4,61.2z"/>
	<g id="code">
        <path d="M90,126.2c-1.3,0-2.4-0.6-3.3-1.1c-1.6-0.9-3.2-2.1-3.2-4c0-0.6,0.2-1.2,0.5-1.9c11.8-22.4,30-57.1,54.2-102.9
            c0.5-1,2.2-3.1,6.4-0.9c3.9,2,3.2,4.9,2.9,5.7c0,0.1-0.1,0.2-0.1,0.3c-16.8,31.4-35,66-54.3,102.9c-0.5,0.9-1.2,1.5-2.1,1.8
            C90.7,126.2,90.3,126.2,90,126.2z"/>
        <path d="M156.9,106.3c-0.3,0-0.5,0-0.8-0.1c-1.1-0.2-1.9-0.8-2.6-1.8c-1-1.5-1.4-3.9,2.2-7.3c0,0,0,0,0,0l24.5-22
            c2.9-2.6,2.9-7.1,0-9.6l-24-21.5c-2.6-2.3-3.5-3.8-3.5-5.3c0-0.9,0.3-1.8,1-2.8c0.9-1.3,3-2.9,7.6,0.2l42.8,29.4
            c1.4,1,3.4,2.5,3.4,4.7c0,2.2-1.9,3.7-3.4,4.7l-43.3,29.8C159.4,105.8,158.1,106.3,156.9,106.3z M157.4,38.2L157.4,38.2
            L157.4,38.2z"/>
        <path d="M76,106.1c0.3,0,0.5,0,0.8-0.1c1.1-0.2,1.9-0.8,2.6-1.8c1-1.5,1.4-3.9-2.2-7.3c0,0,0,0,0,0l-24.5-22
            c-2.9-2.6-2.9-7.1,0-9.6l24-21.5c2.6-2.3,3.5-3.8,3.5-5.3c0-0.9-0.3-1.8-1-2.8c-0.9-1.3-3-2.9-7.6,0.2L28.7,65.4
            c-1.4,1-3.4,2.5-3.4,4.7c0,2.2,1.9,3.7,3.4,4.7L72,104.6C73.5,105.6,74.8,106.1,76,106.1z M75.4,38L75.4,38L75.4,38z"/>
	</g>
</g>
</svg>
